<?xml version="1.0" encoding="utf-8"?>
<!-- Generator: Adobe Illustrator 26.5.0, SVG Export Plug-In . SVG Version: 6.00 Build 0)  -->
<svg version="1.1" id="Layer_1" xmlns="http://www.w3.org/2000/svg" xmlns:xlink="http://www.w3.org/1999/xlink" x="0px" y="0px"
	 viewBox="0 0 512 512" style="enable-background:new 0 0 512 512;" xml:space="preserve">
<style type="text/css">
	.st0{fill:url(#XMLID_00000079485386740791016740000009155600360919033737_);}
	.st1{fill:#006150;}
</style>
<g id="XMLID_1_">
	
		<linearGradient id="XMLID_00000123432779666427935960000015211280547961113989_" gradientUnits="userSpaceOnUse" x1="-17.109" y1="256.1" x2="105.2286" y2="256.1" gradientTransform="matrix(1 0 0 -1 0 512)">
		<stop  offset="0.3" style="stop-color:#6EAB24"/>
		<stop  offset="0.7" style="stop-color:#006150"/>
	</linearGradient>
	<path id="XMLID_2_" style="fill:url(#XMLID_00000123432779666427935960000015211280547961113989_);" d="M20.62,273.75
		c-1.11-1.94-0.42-4.43,1.52-5.54c1.94-1.11,4.43-0.42,5.54,1.52c1.11,1.94,0.42,4.43-1.52,5.67c-0.69,0.42-1.38,0.55-2.08,0.55
		C22.69,275.83,21.31,275.13,20.62,273.75 M34.73,261.57c-1.8-3.18-8.44-2.08-6.23,2.35c-2.63-1.52-5.95-1.52-8.72,0
		c-4.29,2.49-5.67,7.89-3.32,12.18c2.49,4.29,7.89,5.67,12.18,3.18c2.77-1.66,4.43-4.57,4.43-7.61c2.77,4.15,7.06-1.11,5.26-4.29
		c1.8-1.25,5.12-3.46,8.3-5.4c0.14-2.35,0.28-4.57,0.28-6.92C43.04,257.56,37.5,260.47,34.73,261.57 M26.29,209.68
		c-8.72,4.98-16.47,10.79-23.11,17.02C1.11,235.56,0,245.24,0,255.21c0,8.3,0.83,16.33,2.35,23.8c2.49-1.52,4.98-3.87,7.33-7.06
		c-0.42-4.01,0-8.72,1.25-13.84c1.25-4.7,3.04-8.86,5.26-12.04c5.81-1.66,18.68,3.04,30.58,9.13c0-1.25,0-2.49,0-3.74
		c0-0.97,0-2.21,0-3.6c-9.96-6.78-18.82-14.39-20.2-19.79c1.66-3.46,4.43-7.06,7.89-10.52c3.74-3.74,7.61-6.37,11.35-8.03
		c1.52-3.6,2.21-7.06,2.35-9.96C40.82,202.35,33.49,205.53,26.29,209.68 M84.69,273.75c-0.83,1.38-2.08,2.08-3.6,2.08
		c-0.69,0-1.38-0.14-2.08-0.55c-1.94-1.11-2.63-3.6-1.52-5.67c1.11-1.94,3.6-2.63,5.54-1.52C85.1,269.32,85.79,271.81,84.69,273.75
		 M70.57,261.57c-2.77-1.25-8.3-4.01-12.04-6.23c0,2.35,0.14,4.57,0.28,6.92c3.18,1.94,6.5,4.01,8.3,5.4
		c-1.8,3.04,2.35,8.3,5.26,4.29c0,3.04,1.66,5.95,4.43,7.61c4.29,2.49,9.69,0.97,12.18-3.18c2.49-4.29,0.97-9.69-3.32-12.18
		c-2.77-1.66-6.09-1.52-8.86,0C79.01,259.5,72.23,258.39,70.57,261.57 M78.88,209.68c-7.2-4.15-14.53-7.33-21.73-9.96
		c0.14,2.91,0.83,6.37,2.35,9.96c3.74,1.66,7.61,4.29,11.35,8.03c3.46,3.46,6.23,7.06,7.89,10.52c-1.38,5.4-10.24,13.01-20.2,19.79
		c0,1.38,0,2.63,0,3.6c0,1.25,0,2.49,0,3.74c11.9-6.09,24.63-10.79,30.58-9.13c2.21,3.18,4.01,7.33,5.26,12.04
		c1.38,5.12,1.8,9.82,1.25,13.84c2.35,3.04,4.98,5.54,7.33,7.06c1.38-7.47,2.35-15.5,2.35-23.8c0-9.96-1.11-19.65-3.18-28.51
		C95.34,220.48,87.59,214.66,78.88,209.68 M48.57,222.27c0-2.21,1.8-4.15,4.15-4.15s4.15,1.8,4.15,4.15c0,2.21-1.8,4.15-4.15,4.15
		S48.57,224.63,48.57,222.27 M43.73,222.27c0,3.18,1.8,6.09,4.29,7.61c-4.98,0.42-2.49,6.64,1.11,6.64
		c0.42,3.32,0.55,10.93,0.55,15.08c0,15.5-2.08,34.46-7.47,39.58c-3.87,0.28-8.3-0.28-13.01-1.52c-5.12-1.38-9.41-3.46-12.59-5.81
		c-3.87,0.55-7.2,1.52-9.82,2.91c5.81,4.98,12.32,9.82,19.51,13.98c8.44,4.84,17.71,8.86,26.29,11.49
		c8.44-2.63,17.85-6.64,26.29-11.49c7.2-4.15,13.7-8.86,19.51-13.98c-2.49-1.38-5.95-2.35-9.82-2.91
		c-3.18,2.35-7.47,4.43-12.59,5.81c-4.7,1.25-9.27,1.8-13.01,1.52c-5.4-5.12-7.47-24.08-7.47-39.58c0-4.15,0.14-11.76,0.55-15.08
		c3.6,0,6.09-6.23,1.11-6.64c2.63-1.52,4.29-4.43,4.29-7.61c0-4.84-4.01-8.86-8.86-8.86S43.73,217.43,43.73,222.27"/>
	<g id="XMLID_5_">
		<path class="st1" d="M168.68,255.62L168.68,255.62c0-10.1-7.2-18.13-17.16-18.13s-17.02,8.03-17.02,17.85v0.14
			c0,9.96,7.2,17.99,17.16,17.99C161.63,273.47,168.68,265.59,168.68,255.62 M129.38,255.62L129.38,255.62
			c0-12.18,8.99-22.69,22.28-22.69s22.14,10.38,22.14,22.42c0.14,0,0.14,0,0,0.14c0,12.04-8.99,22.56-22.28,22.56
			S129.38,267.66,129.38,255.62"/>
		<polygon id="XMLID_10_" class="st1" points="179.48,233.62 184.32,233.62 184.32,272.78 208.95,272.78 208.95,277.35 
			179.48,277.35 		"/>
		<path class="st1" d="M229.85,272.78c11.07,0,18.13-7.47,18.13-17.16v-0.14c0-9.69-7.06-17.3-18.13-17.3h-10.24v34.59H229.85z
			 M214.76,233.62h15.08c13.7,0,23.25,9.41,23.25,21.73v0.14c0,12.32-9.41,21.86-23.25,21.86h-15.08V233.62z"/>
		<polygon id="XMLID_7_" class="st1" points="258.91,233.62 269.28,233.62 280.77,252.16 292.26,233.62 302.63,233.62 
			302.63,277.35 293.09,277.35 293.09,248.84 280.77,267.52 280.49,267.52 268.32,248.98 268.32,277.35 258.91,277.35 		"/>
		<path id="XMLID_6_" class="st1" d="M308.45,258.67v-24.91h9.55v24.63c0,7.06,3.6,10.79,9.41,10.79c5.81,0,9.41-3.6,9.41-10.52
			v-25.05h9.55v24.63c0,13.15-7.47,19.65-19.1,19.65C315.64,278.04,308.45,271.4,308.45,258.67"/>
		<polygon id="XMLID_21_" class="st1" points="364.63,242.48 351.34,242.48 351.34,233.62 387.46,233.62 387.46,242.48 
			374.18,242.48 374.18,277.35 364.63,277.35 		"/>
		<path id="XMLID_22_" class="st1" d="M392.44,258.67v-24.91h9.55v24.63c0,7.06,3.6,10.79,9.41,10.79c5.81,0,9.41-3.6,9.41-10.52
			v-25.05h9.55v24.63c0,13.15-7.47,19.65-19.1,19.65C399.64,278.04,392.44,271.4,392.44,258.67"/>
		<path class="st1" d="M458.86,259.08l-5.81-14.11l-5.81,14.11H458.86z M448.76,233.34h8.86l18.68,44h-9.96l-4.01-9.82h-18.4
			l-4.01,9.82h-9.82L448.76,233.34z"/>
		<polygon id="XMLID_23_" class="st1" points="480.59,233.62 490.27,233.62 490.27,268.63 512,268.63 512,277.35 480.59,277.35 		
			"/>
	</g>
</g>
</svg>
